# AST/ASF file generated using VICON BodyLanguage
# -----------------------------------------------
:version 1.10
:name VICON
:units
  mass 1.0
  length 0.45
  angle deg
:documentation
   .ast/.asf automatically generated from VICON data using
   VICON BodyBuilder and BodyLanguage model FoxedUp or BRILLIANT.MOD
:root
   order TX TY TZ RX RY RZ
   axis XYZ
   position 0 0 0  
   orientation 0 0 0 
:bonedata
  begin
     id 1 
     name lhipjoint
     direction 0.523584 -0.783993 0.333487 
     length 2.44404 
     axis 0 0 0  XYZ
  end
  begin
     id 2 
     name lfemur
     direction 0.34202 -0.939693 0  
     length 7.29523  
     axis 0 0 20  XYZ
    dof rx ry rz
    limits (-160.0 20.0)
           (-70.0 70.0)
           (-60.0 70.0)
  end
  begin
     id 3 
     name ltibia
     direction 0.34215 -0.939645 0   
     length 7.81194   
     axis 0 0 20   XYZ
    dof rx
    limits (-10.0 170.0)
  end
  begin
     id 4 
     name lfoot
     direction 0.0941847 -0.25877 0.961336   
     length 2.41437   
     axis -90 7.62852e-016 20   XYZ
    dof rx rz
    limits (-45.0 90.0)
           (-70.0 20.0)
  end
  begin
     id 5 
     name ltoes
     direction 1.53526e-011 -4.21768e-011 1   
     length 1.2048   
     axis -90 7.62852e-016 20   XYZ
    dof rx
    limits (-90.0 20.0)
  end
  begin
     id 6 
     name rhipjoint
     direction -0.46599 -0.814191 0.346332   
     length 2.35339  
     axis 0 0 0  XYZ 
  end
  begin
     id 7 
     name rfemur
     direction -0.34202 -0.939693 0   
     length 7.34966   
     axis 0 0 -20   XYZ
    dof rx ry rz
    limits (-160.0 20.0)
           (-70.0 70.0)
           (-70.0 60.0)
  end
  begin
     id 8 
     name rtibia
     direction -0.34202 -0.939693 0   
     length 7.89934   
     axis 0 0 -20   XYZ
    dof rx
    limits (-10.0 170.0)
 end
 begin
     id 9 
     name rfoot
     direction -0.0975468 -0.268008 0.958466   
     length 2.27725  
     axis -90 -7.62852e-016 -20   XYZ
    dof rx rz
    limits (-45.0 90.0)
           (-20.0 70.0)
  end
  begin
     id 10 
     name rtoes
     direction -1.53563e-011 -4.22022e-011 1   
     length 1.13683   
     axis -90 -7.62852e-016 -20   XYZ
    dof rx
    limits (-90.0 20.0)
  end
  begin
     id 11 
     name lowerback
     direction -0.00456414 0.999242 -0.0386661   
     length 2.16968   
     axis 0 0 0   XYZ
    dof rx ry rz
    limits (-20.0 45.0)
           (-30.0 30.0)
           (-30.0 30.0)
  end
  begin
     id 12 
     name upperback
     direction 0.0297078 0.998988 0.0337799   
     length 2.15674   
     axis 0 0 0   XYZ
    dof rx ry rz
    limits (-20.0 45.0)
           (-30.0 30.0)
           (-30.0 30.0)
  end
  begin
     id 13 
     name thorax
     direction 0.0309305 0.998202 0.0513506   
     length 2.16319   
     axis 0 0 0   XYZ
    dof rx ry rz
    limits (-20.0 45.0)
           (-30.0 30.0)
           (-30.0 30.0)
  end
  begin
     id 14 
     name lowerneck
     direction -0.103039 0.983474 0.148872   
     length 1.64318   
     axis 0 0 0   XYZ
    dof rx ry rz
    limits (-20.0 45.0)
           (-30.0 30.0)
           (-30.0 30.0)
  end
  begin
     id 15 
     name upperneck
     direction 0.128124 0.971079 -0.201469   
     length 1.68242   
     axis 0 0 0   XYZ
    dof rx ry rz
    limits (-20.0 45.0)
           (-30.0 30.0)
           (-30.0 30.0)
  end
  begin
     id 16
     name head
     direction 0.0496365 0.994919 -0.0875941  
     length 1.70108  
     axis 0 0 0   XYZ
    dof rx ry rz
    limits (-20.0 45.0)
           (-30.0 30.0)
           (-30.0 30.0)
  end
  begin
     id 17 
     name lclavicle
     direction 0.887148 0.430222 -0.166967  
     length 3.25763  
     axis 0 0 0   XYZ
    dof ry rz
    limits (-20.0 10.0)
           (0.0 20.0)
  end
  begin
     id 18 
     name lhumerus
     direction 1 -4.48962e-011 1.92156e-027   
     length 5.10755   
     axis 180 -30 -90   XYZ
    dof rx ry rz
    limits (-60.0 90.0)
           (-90.0 90.0)
           (-90.0 90.0)
  end
  begin
     id 19
     name lradius
     direction 1 -4.48958e-011 7.10963e-027   
     length 3.36253   
     axis 180 -30 -90   XYZ
    dof rx
    limits (-10.0 170.0)
  end
  begin
     id 20
     name lwrist
     direction 1 -4.48946e-011 1.82396e-026   
     length 1.68127   
     axis -1.15222e-014 90 90   XYZ
    dof ry
    limits (-180.0 0.0)
 end
  begin
     id 21 
     name lhand
     direction 1 -4.48919e-011 3.64759e-026   
     length 0.619088   
     axis -2.32787e-014 90 90   XYZ
    dof rx rz
    limits (-90.0 90.0)
           (-45.0 45.0)
  end
  begin
     id 22 
     name lfingers
     direction 1 -4.49012e-011 7.29744e-026   
     length 0.499125   
     axis -4.6558e-014 90 90   XYZ
    dof rx
    limits (0.0 90.0)
  end
  begin
     id 23
     name lthumb
     direction 0.707107 -6.35028e-011 0.707107   
     length 0.716646   
     axis -90 45 3.78391e-014   XYZ
    dof rx rz
    limits (-45.0 45.0)
           (-45.0 45.0)
  end
  begin
     id 24 
     name rclavicle
     direction -0.82886 0.533198 -0.169384   
     length 3.20647  
     axis 0 0 0   XYZ 
    dof ry rz
    limits (-10.0 20.0)
           (-20.0 0.0)
  end
  begin
     id 25 
     name rhumerus
     direction -1 -4.48973e-011 3.06863e-027  
     length 5.27387   
     axis 180 30 90   XYZ
    dof rx ry rz
    limits (-90.0 60.0)
           (-90.0 90.0)
           (-90.0 90.0)
  end
  begin
     id 26 
     name rradius
     direction -1 -4.48988e-011 9.4797e-027   
     length 3.40144   
     axis 180 30 90   XYZ
    dof rx
    limits (-10.0 170.0)
  end
  begin
     id 27 
     name rwrist
     direction -1 -4.48897e-011 1.82366e-026   
     length 1.70072   
     axis -1.15222e-014 -90 -90   XYZ
    dof ry
    limits (-180.0 0.0)
  end
  begin
     id 28
     name rhand
     direction -1 -4.48965e-011 3.64815e-026   
     length 0.742821   
     axis -2.32787e-014 -90 -90   XYZ
    dof rx rz
    limits (-90.0 90.0)
           (-45.0 45.0)
  end
  begin
     id 29
     name rfingers
     direction -1 -4.49016e-011 7.29754e-026   
     length 0.598881   
     axis -4.6558e-014 -90 -90   XYZ
    dof rx
    limits (0.0 90.0)
  end
  begin
     id 30
     name rthumb
     direction -0.707107 -6.3488e-011 0.707107   
     length 0.859877   
     axis -90 -45 -3.78391e-014   XYZ
    dof rx rz
    limits (-45.0 45.0)
           (-45.0 45.0)
  end
:hierarchy
  begin
    root lhipjoint rhipjoint lowerback
    lhipjoint lfemur
    lfemur ltibia
    ltibia lfoot
    lfoot ltoes
    rhipjoint rfemur
    rfemur rtibia
    rtibia rfoot
    rfoot rtoes
    lowerback upperback
    upperback thorax
    thorax lowerneck lclavicle rclavicle
    lowerneck upperneck
    upperneck head
    lclavicle lhumerus
    lhumerus lradius
    lradius lwrist
    lwrist lhand lthumb
    lhand lfingers
    rclavicle rhumerus
    rhumerus rradius
    rradius rwrist
    rwrist rhand rthumb
    rhand rfingers
  end

#!OML:ASF F:\Work\Patient Classification 1\justin\Session 1\justin.ASF
:FULLY-SPECIFIED
:DEGREES
113
root 0.288305 18.4439 -5.57659 3.69982 -0.549014 -1.91202
lowerback 9.91971 -0.531252 0.0680348
upperback -0.813331 -0.463761 3.6893
thorax -6.40347 -0.162162 3.91902
lowerneck -18.7113 -5.45132 -15.2622
upperneck 21.6587 -5.76542 10.6558
head 10.8528 -2.67284 5.56931
rclavicle 4.17448e-015 3.10104e-014
rhumerus -24.6315 6.50053 -83.2832
rradius 45.6074
rwrist -6.95672
rhand -24.9799 11.1003
rfingers 7.12502
rthumb 1.53094 -18.874
lclavicle 4.17448e-015 3.10104e-014
lhumerus -21.6024 -0.067853 90.3947
lradius 41.8888
lwrist 8.75819
lhand -10.1249 32.6927
lfingers 7.12502
lthumb 15.8633 62.0629
rfemur -10.3803 1.61607 22.4721
rtibia 20.3481
rfoot -9.87399 -6.10021
rtoes -6.53835
lfemur -6.5288 0.248813 -16.3854
ltibia 16.0619
lfoot -9.40571 -0.496243
ltoes -14.9069
114
root 0.275957 18.4517 -5.59682 3.93907 -0.414413 -1.85464
lowerback 10.1323 -0.554102 -9.25886e-005
upperback -0.853881 -0.499189 3.64859
thorax -6.56463 -0.175523 3.92604
lowerneck -19.2125 -5.4784 -14.8587
upperneck 21.9154 -5.75484 10.2351
head 11.0146 -2.67345 5.34815
rclavicle 6.36111e-015 8.74653e-015
rhumerus -23.3527 7.05074 -83.2754
rradius 45.779
rwrist -7.14875
rhand -25.435 10.9323
rfingers 7.12502
rthumb 1.09146 -19.0447
lclavicle 6.36111e-015 8.74653e-015
lhumerus -20.259 -0.435803 90.1524
lradius 41.7567
lwrist 8.99526
lhand -10.2735 32.3779
lfingers 7.12502
lthumb 15.7203 61.7594
rfemur -10.6523 1.55215 22.4504
rtibia 20.256
rfoot -9.78674 -6.1752
rtoes -6.28771
lfemur -6.87212 0.166785 -16.3984
ltibia 16.0495
lfoot -9.22615 -0.483273
ltoes -15.046
115
root 0.26191 18.4596 -5.6122 4.1104 -0.317385 -1.7937
lowerback 10.3541 -0.547896 -0.114864
upperback -0.864552 -0.501808 3.62494
thorax -6.70115 -0.171186 3.97232
lowerneck -20.1597 -5.62026 -14.1694
upperneck 22.572 -5.83407 9.35487
head 11.4013 -2.74111 4.89681
rclavicle 2.98177e-016 1.74931e-014
rhumerus -22.181 7.66419 -83.2184
rradius 46.1073
rwrist -7.23121
rhand -25.5483 11.6854
rfingers 7.12502
rthumb 0.982035 -18.2921
lclavicle 2.98177e-016 1.74931e-014
lhumerus -18.7962 -0.797655 89.9131
lradius 41.3892
lwrist 9.03626
lhand -8.70758 36.1689
lfingers 7.12502
lthumb 17.2279 65.4252
rfemur -10.85 1.48616 22.4326
rtibia 20.1885
rfoot -9.74015 -6.22887
rtoes -7.06421
lfemur -7.10568 0.171988 -16.4206
ltibia 16.0356
lfoot -9.17242 -0.507851
ltoes -15.8442
116
root 0.249618 18.4638 -5.63235 4.25892 -0.263766 -1.84595
lowerback 10.4232 -0.540771 -0.124795
upperback -0.746576 -0.494172 3.64781
thorax -6.61532 -0.168816 3.99989
lowerneck -19.4009 -5.46798 -14.7829
upperneck 21.6878 -5.73621 10.3006
head 10.9628 -2.64198 5.35508
rclavicle -5.56597e-015 -1.11319e-014
rhumerus -20.7894 8.27301 -83.0833
rradius 46.4245
rwrist -7.2042
rhand -25.7042 12.1462
rfingers 7.12502
rthumb 0.831395 -17.832
lclavicle -5.56597e-015 -1.11319e-014
lhumerus -17.258 -1.17113 89.6693
lradius 41.3228
lwrist 9.14496
lhand -5.33229 44.043
lfingers 7.12502
lthumb 20.4741 72.9835
rfemur -11.0819 1.44446 22.5401
rtibia 20.1593
rfoot -9.60652 -6.30758
rtoes -8.25957
lfemur -7.30267 0.247847 -16.3232
ltibia 15.9421
lfoot -9.05921 -0.58856
ltoes -16.3447
117
root 0.243063 18.4687 -5.65127 4.42304 -0.192697 -1.9367
lowerback 10.3881 -0.560544 -0.00639009
upperback -0.597739 -0.510531 3.65382
thorax -6.4371 -0.184504 3.93691
lowerneck -19.1361 -5.41263 -15.0316
upperneck 21.2222 -5.70101 10.7234
head 10.7573 -2.59732 5.54973
rclavicle -3.77691e-015 -3.18055e-015
rhumerus -19.2458 8.81004 -82.9225
rradius 46.7177
rwrist -7.41669
rhand -25.6841 12.1584
rfingers 7.12502
rthumb 0.850857 -17.8196
lclavicle -3.77691e-015 -3.18055e-015
lhumerus -15.8565 -1.56884 89.3936
lradius 41.645
lwrist 9.56935
lhand -16.1269 34.9884
lfingers 7.12502
lthumb 10.0777 64.7271
rfemur -11.333 1.29329 22.6556
rtibia 20.1671
rfoot -9.51544 -6.23555
rtoes -8.21738
lfemur -7.50111 0.251266 -16.1933
ltibia 15.8238
lfoot -8.91625 -0.657863
ltoes -16.1143
118
root 0.241393 18.4758 -5.66035 4.58903 0.0620058 -1.82492
lowerback 10.3568 -0.63695 0.01773
upperback -0.527981 -0.616364 3.58716
thorax -6.33886 -0.240307 3.86626
lowerneck -18.798 -5.39223 -15.2106
upperneck 20.7912 -5.71473 11.0101
head 10.5531 -2.58801 5.67334
rclavicle -3.57812e-015 1.59028e-014
rhumerus -17.8297 9.35781 -82.7474
rradius 46.9138
rwrist -7.73458
rhand -25.7512 12.6438
rfingers 7.12502
rthumb 0.786083 -17.3345
lclavicle -3.57812e-015 1.59028e-014
lhumerus -14.419 -1.95801 89.124
lradius 41.7796
lwrist 10.0817
lhand -12.1319 32.5763
lfingers 7.12502
lthumb 13.9299 62.0897
rfemur -11.5436 0.800011 22.5302
rtibia 20.1661
rfoot -9.49708 -5.99108
rtoes -8.44962
lfemur -7.74279 0.136558 -16.3121
ltibia 15.8117
lfoot -8.82144 -0.786576
ltoes -15.6503
119
root 0.236059 18.4813 -5.67704 4.80142 0.373875 -1.58686
lowerback 10.5253 -0.696102 -0.142136
upperback -0.524906 -0.715956 3.52133
thorax -6.42315 -0.283864 3.90712
lowerneck -18.5954 -5.40696 -15.425
upperneck 20.4089 -5.75076 11.3055
head 10.3987 -2.5884 5.80362
rclavicle -2.5842e-015 -3.02153e-014
rhumerus -16.4939 9.87381 -82.4691
rradius 47.2254
rwrist -7.74873
rhand -25.9848 13.0311
rfingers 7.12502
rthumb 0.560452 -16.9479
lclavicle -2.5842e-015 -3.02153e-014
lhumerus -12.8405 -2.20291 88.8971
lradius 41.6575
lwrist 10.3238
lhand -12.5017 31.2689
lfingers 7.12502
lthumb 13.5735 60.8064
rfemur -11.8535 0.344118 22.2964
rtibia 20.1723
rfoot -9.43351 -5.86952
rtoes -8.42085
lfemur -8.09548 -0.0319663 -16.5495
ltibia 15.806
lfoot -8.64157 -0.919572
ltoes -15.2321
120
root 0.220772 18.4847 -5.7079 5.12666 0.561376 -1.6201
lowerback 10.7648 -0.696096 -0.147424
upperback -0.528597 -0.711612 3.52429
thorax -6.56304 -0.279458 3.91925
lowerneck -18.8704 -5.48351 -15.4686
upperneck 20.3875 -5.83239 11.435
head 10.4614 -2.60678 5.84598
rclavicle -2.28602e-015 1.90833e-014
rhumerus -15.1337 10.3156 -82.1916
rradius 47.7925
rwrist -7.97615
rhand -26.2102 12.8892
rfingers 7.12502
rthumb 0.342716 -17.0903
lclavicle -2.28602e-015 1.90833e-014
lhumerus -11.2004 -2.479 88.6013
lradius 41.5556
lwrist 10.6812
lhand -16.5685 32.3145
lfingers 7.12502
lthumb 9.65173 62.0733
rfemur -12.3507 0.384537 22.4168
rtibia 20.1972
rfoot -9.22876 -6.13217
rtoes -8.6909
lfemur -8.54578 -0.138821 -16.4269
ltibia 15.6652
lfoot -8.39733 -0.96329
ltoes -15.374
121
root 0.206653 18.4881 -5.72734 5.41811 0.560834 -1.69
lowerback 10.7282 -0.651629 -0.113703
upperback -0.41546 -0.653515 3.49967
thorax -6.42669 -0.255327 3.86064
lowerneck -19.0254 -5.55707 -15.4071
upperneck 20.2459 -5.93613 11.4997
head 10.4557 -2.63567 5.83828
rclavicle -1.98785e-016 -3.02153e-014
rhumerus -13.6386 10.7972 -81.9474
rradius 48.2909
rwrist -8.53048
rhand -26.4777 12.7899
rfingers 7.12502
rthumb 0.0844026 -17.1898
lclavicle -1.98785e-016 -3.02153e-014
lhumerus -9.43476 -2.9711 88.2407
lradius 41.5717
lwrist 11.3608
lhand -6.24112 43.3334
lfingers 7.12502
lthumb 19.6006 72.3653
rfemur -12.7527 0.520348 22.5562
rtibia 20.1957
rfoot -9.02689 -6.32001
rtoes -9.68078
lfemur -8.8854 -0.223814 -16.2899
ltibia 15.5212
lfoot -8.25224 -0.83042
ltoes -15.5942
122
root 0.203401 18.4951 -5.72775 5.53822 0.443556 -1.56093
lowerback 10.6224 -0.568952 -0.199602
upperback -0.248504 -0.566362 3.41382
thorax -6.19543 -0.215667 3.79771
lowerneck -19.234 -5.63722 -15.1417
upperneck 20.2497 -6.02134 11.197
head 10.4901 -2.68131 5.6639
rclavicle -1.19271e-015 -3.18055e-015
rhumerus -12.1494 11.3466 -81.608
rradius 48.6502
rwrist -8.92847
rhand -26.3723 12.9174
rfingers 7.12502
rthumb 0.186165 -17.0623
lclavicle -1.19271e-015 -3.18055e-015
lhumerus -7.71571 -3.4047 87.9575
lradius 41.6095
lwrist 11.862
lhand -8.28295 39.8502
lfingers 7.12502
lthumb 17.6366 69.0703
rfemur -12.8794 0.400774 22.3989
rtibia 20.1619
rfoot -9.00844 -6.08122
rtoes -9.78893
lfemur -8.98612 -0.343427 -16.4471
ltibia 15.5045
lfoot -8.2429 -0.573021
ltoes -15.535
123
root 0.199567 18.5025 -5.74041 5.70847 0.360072 -1.52692
lowerback 10.7397 -0.489284 -0.245674
upperback -0.257108 -0.464747 3.39798
thorax -6.27742 -0.16338 3.79402
lowerneck -19.5685 -5.71089 -14.6583
upperneck 20.5648 -6.06594 10.4926
head 10.633 -2.73744 5.31641
rclavicle -1.63997e-014 -2.22639e-014
rhumerus -10.8835 11.9501 -81.1996
rradius 49.0203
rwrist -9.08385
rhand -26.378 12.93
rfingers 7.12502
rthumb 0.180658 -17.0497
lclavicle -1.63997e-014 -2.22639e-014
lhumerus -6.2275 -3.57448 87.7654
lradius 41.5028
lwrist 12.0192
lhand -9.53005 36.3287
lfingers 7.12502
lthumb 16.4362 65.6524
rfemur -13.143 0.284735 22.3568
rtibia 20.1385
rfoot -8.96109 -5.87981
rtoes -9.74823
lfemur -9.15424 -0.39409 -16.4961
ltibia 15.4635
lfoot -8.19779 -0.390633
ltoes -16.0116
